<svg
        xmlns="http://www.w3.org/2000/svg"
        viewBox="0 0 64 64"
        width="64"
        height="64"
        fill="none"
        xmlns:xlink="http://www.w3.org/1999/xlink"
>
    <!-- Background -->
    <rect width="64" height="64" fill="#ffffff" />

    <!-- Tree -->
    <polygon points="32,4 24,24 40,24" fill="#006400" />
    <polygon points="32,14 20,34 44,34" fill="#008000" />
    <polygon points="32,24 16,44 48,44" fill="#00A000" />

    <!-- Trunk -->
    <rect x="28" y="44" width="8" height="10" fill="#8B4513" />

    <!-- Decorations -->
    <circle cx="24" cy="20" r="2" fill="#FF0000" />
    <circle cx="36" cy="22" r="2" fill="#FFD700" />
    <circle cx="20" cy="30" r="2" fill="#00FFFF" />
    <circle cx="44" cy="30" r="2" fill="#FF69B4" />
    <circle cx="32" cy="40" r="2" fill="#FF4500" />

    <!-- Star -->
    <polygon points="32,2 30,8 25,8 29,11 27,17 32,14 37,17 35,11 39,8 34,8" fill="#FFD700" />
</svg>
